<svg xmlns="http://www.w3.org/2000/svg" viewBox="0 0 1240 806" width="1240" height="806" font-family="Consolas, Courier New, monospace">
  <rect width="1240" height="806" fill="#111418"/>
  <g font-size="15">
    <g fill="#56d4dd">
      <text x="24" y="40">[scheduler]</text><text x="24" y="63">[scheduler]</text><text x="24" y="86">[scheduler]</text>
      <text x="24" y="109">[scheduler]</text><text x="24" y="132">[scheduler]</text><text x="24" y="160">[scheduler]</text>
      <text x="24" y="196">[scheduler]</text><text x="24" y="219">[scheduler]</text><text x="24" y="242">[scheduler]</text>
      <text x="24" y="265">[scheduler]</text><text x="24" y="293">[scheduler]</text><text x="24" y="326">[scheduler]</text>
    </g>
    <g fill="#d7dde5">
      <text x="132" y="40">[validator] Running sign-off (DRC + LVS + pin audit) for scheduler...</text>
      <text x="132" y="63">[validator] Running DRC check...</text>
      <text x="132" y="86">[validator] Running LVS check...</text>
      <text x="132" y="109">[validator] Running STA sign-off check...</text>
      <text x="132" y="132">[validator] DRC PASS  violations=0 | LVS PASS  6081 nets / 753 pins | AUDIT PASS 754/754</text>
      <text x="132" y="160">[validator] STA soft fail (WNS=-0.914878ns) - autotuner disabled or exhausted. Marking FAIL.</text>
      <text x="132" y="196">[findings] STA failure - extracting critical path from 6_finish.rpt</text>
      <text x="132" y="219">[findings] worst path  q_bank[47] -&gt; cmd_row[5]   slack=-0.915ns  levels=36</text>
      <text x="132" y="242">[findings] arrival=6.15ns required=5.23ns  TNS=-29.317ns (multiple endpoints failing)</text>
      <text x="132" y="265">[findings] mechanism: two 16-deep priority loops in series, gated on !sel_valid</text>
      <text x="132" y="293">[findings] emitted scheduler/TIMING/cmd_row[5]  owner=frontend  severity=critical</text>
      <text x="132" y="326">[findings] wrote Validation/findings/outbox/golden_ddr3_1600k_x8_2lane_1rank/findings_v2.json</text>
    </g>
  </g>
  <rect x="20" y="141" width="1113" height="26" fill="none" stroke="#ff5f56" stroke-width="2" rx="3"/>
  <rect x="20" y="274" width="998" height="26" fill="none" stroke="#3fb950" stroke-width="2" rx="3"/>

  <g font-size="15" fill="#d7dde5">
    <text x="24" y="368">{</text>
    <text x="44" y="391">"schema": "validation-findings/2",</text>
    <text x="44" y="414">"id": "scheduler/TIMING/cmd_row[5]",</text>
    <text x="44" y="437">"kind": "timing_defect",</text>
    <text x="44" y="460">"owner_module": "scheduler",</text>
    <text x="44" y="483">"severity": "critical",</text>
    <text x="44" y="506">"confidence": "observed",</text>
    <text x="44" y="529">"requirement": "close timing at the spec period of 5.0 ns (200 MHz)",</text>
    <text x="44" y="552">"expected": "slack &gt;= 0 ns",</text>
    <text x="44" y="575">"actual": "WNS -0.915 ns, TNS -29.317 ns, Fmax 169.06 MHz",</text>
    <text x="44" y="598">"mechanism": "q_bank[47] -&gt; 36 logic levels -&gt; cmd_row[5]; two 16-deep</text>
    <text x="60" y="621">priority loops in series, no pipelining",</text>
    <text x="44" y="644">"anchor": "Frontend2/OutputFolders/PHASE3RTL/scheduler.sv",</text>
    <text x="44" y="667">"suggested_fix": "tree priority encoder: same function, ~4 levels not 32",</text>
    <text x="44" y="690">"repro": "pipeline_batch.py --bundle_dirs bundles_frontend2/scheduler",</text>
    <text x="44" y="713">"drop": "c8ac792",  "first_seen": "2026-09-29",  "status": "open"</text>
    <text x="24" y="736">}</text>
  </g>
</svg>
